<svg xmlns="http://www.w3.org/2000/svg" xmlns:xlink="http://www.w3.org/1999/xlink" width="88px" height="29px" zoomAndPan="magnify" viewBox="0 0 1440 809.999993" height="1080" preserveAspectRatio="xMidYMid meet" version="1.0"><defs><g/><clipPath id="0a233c8cbe"><path d="M 22.367188 182.890625 L 466.367188 182.890625 L 466.367188 626.890625 L 22.367188 626.890625 Z M 22.367188 182.890625 " clip-rule="nonzero"/></clipPath><clipPath id="c5ffbe42bf"><path d="M 466.367188 404.890625 C 466.367188 527.5 366.972656 626.890625 244.367188 626.890625 C 121.757812 626.890625 22.367188 527.5 22.367188 404.890625 C 22.367188 282.285156 121.757812 182.890625 244.367188 182.890625 C 366.972656 182.890625 466.367188 282.285156 466.367188 404.890625 Z M 466.367188 404.890625 " clip-rule="nonzero"/></clipPath><clipPath id="7eae41ecad"><path d="M 466.367188 404.890625 C 466.367188 527.5 366.972656 626.890625 244.367188 626.890625 C 121.757812 626.890625 22.367188 527.5 22.367188 404.890625 C 22.367188 282.285156 121.757812 182.890625 244.367188 182.890625 C 366.972656 182.890625 466.367188 282.285156 466.367188 404.890625 " clip-rule="nonzero"/></clipPath><clipPath id="206b96a3d0"><path d="M 322.207031 -25.015625 L -185.539062 327.050781 L 166.523438 834.800781 L 674.273438 482.734375 Z M 322.207031 -25.015625 " clip-rule="nonzero"/></clipPath><linearGradient x1="-0.00730858" gradientTransform="matrix(361.080137, 520.747125, -520.747125, 361.080137, 70.972952, 154.824479)" y1="0" x2="0.967726" gradientUnits="userSpaceOnUse" y2="0" id="252e57775f"><stop stop-opacity="1" stop-color="rgb(92.89856%, 10.998535%, 14.099121%)" offset="0"/><stop stop-opacity="1" stop-color="rgb(92.89856%, 10.998535%, 14.099121%)" offset="0.0078125"/><stop stop-opacity="1" stop-color="rgb(93.629456%, 9.901428%, 12.678528%)" offset="0.0117188"/><stop stop-opacity="1" stop-color="rgb(94.360352%, 8.805847%, 11.257935%)" offset="0.015625"/><stop stop-opacity="1" stop-color="rgb(95.24231%, 7.333374%, 9.5047%)" offset="0.0195312"/><stop stop-opacity="1" stop-color="rgb(96.124268%, 5.862427%, 7.752991%)" offset="0.0234375"/><stop stop-opacity="1" stop-color="rgb(96.855164%, 4.690552%, 6.239319%)" offset="0.0273438"/><stop stop-opacity="1" stop-color="rgb(97.587585%, 3.518677%, 4.725647%)" offset="0.03125"/><stop stop-opacity="1" stop-color="rgb(98.36731%, 2.397156%, 3.208923%)" offset="0.0351562"/><stop stop-opacity="1" stop-color="rgb(99.14856%, 1.275635%, 1.693726%)" offset="0.0390625"/><stop stop-opacity="1" stop-color="rgb(99.551392%, 0.65918%, 0.889587%)" offset="0.0429688"/><stop stop-opacity="1" stop-color="rgb(99.95575%, 0.0427246%, 0.0869751%)" offset="0.046875"/><stop stop-opacity="1" stop-color="rgb(99.787903%, 0.0213623%, 0.231934%)" offset="0.0625"/><stop stop-opacity="1" stop-color="rgb(99.516296%, 0.0930786%, 0.389099%)" offset="0.0703125"/><stop stop-opacity="1" stop-color="rgb(99.308777%, 0.289917%, 0.39978%)" offset="0.078125"/><stop stop-opacity="1" stop-color="rgb(99.105835%, 0.491333%, 0.494385%)" offset="0.0859375"/><stop stop-opacity="1" stop-color="rgb(98.910522%, 0.688171%, 0.688171%)" offset="0.09375"/><stop stop-opacity="1" stop-color="rgb(98.709106%, 0.791931%, 0.888062%)" offset="0.101563"/><stop stop-opacity="1" stop-color="rgb(98.501587%, 0.799561%, 1.095581%)" offset="0.109375"/><stop stop-opacity="1" stop-color="rgb(98.202515%, 0.996399%, 1.199341%)" offset="0.125"/><stop stop-opacity="1" stop-color="rgb(97.81189%, 1.387024%, 1.390076%)" offset="0.140625"/><stop stop-opacity="1" stop-color="rgb(97.535706%, 1.589966%, 1.686096%)" offset="0.148438"/><stop stop-opacity="1" stop-color="rgb(97.37854%, 1.599121%, 1.893616%)" offset="0.15625"/><stop stop-opacity="1" stop-color="rgb(97.105408%, 1.792908%, 2.192688%)" offset="0.171875"/><stop stop-opacity="1" stop-color="rgb(96.714783%, 1.992798%, 2.392578%)" offset="0.1875"/><stop stop-opacity="1" stop-color="rgb(96.41571%, 2.09198%, 2.468872%)" offset="0.195313"/><stop stop-opacity="1" stop-color="rgb(96.208191%, 2.290344%, 2.616882%)" offset="0.203125"/><stop stop-opacity="1" stop-color="rgb(95.909119%, 2.540588%, 2.890015%)" offset="0.21875"/><stop stop-opacity="1" stop-color="rgb(95.610046%, 2.693176%, 3.091431%)" offset="0.226562"/><stop stop-opacity="1" stop-color="rgb(95.402527%, 2.69928%, 3.09906%)" offset="0.234375"/><stop stop-opacity="1" stop-color="rgb(95.298767%, 2.896118%, 3.295898%)" offset="0.25"/><stop stop-opacity="1" stop-color="rgb(95.106506%, 3.094482%, 3.686523%)" offset="0.265625"/><stop stop-opacity="1" stop-color="rgb(94.812012%, 3.193665%, 3.889465%)" offset="0.273437"/><stop stop-opacity="1" stop-color="rgb(94.604492%, 3.393555%, 3.898621%)" offset="0.28125"/><stop stop-opacity="1" stop-color="rgb(94.30542%, 3.692627%, 4.092407%)" offset="0.296875"/><stop stop-opacity="1" stop-color="rgb(93.914795%, 3.892517%, 4.483032%)" offset="0.3125"/><stop stop-opacity="1" stop-color="rgb(93.615723%, 3.991699%, 4.782104%)" offset="0.320312"/><stop stop-opacity="1" stop-color="rgb(93.408203%, 4.190063%, 4.989624%)" offset="0.328125"/><stop stop-opacity="1" stop-color="rgb(93.206787%, 4.391479%, 5.096436%)" offset="0.335938"/><stop stop-opacity="1" stop-color="rgb(93.011475%, 4.588318%, 5.099487%)" offset="0.34375"/><stop stop-opacity="1" stop-color="rgb(92.810059%, 4.692078%, 5.195618%)" offset="0.351562"/><stop stop-opacity="1" stop-color="rgb(92.601013%, 4.699707%, 5.397034%)" offset="0.359375"/><stop stop-opacity="1" stop-color="rgb(92.350769%, 4.896545%, 5.696106%)" offset="0.375"/><stop stop-opacity="1" stop-color="rgb(92.010498%, 5.09491%, 5.89447%)" offset="0.390625"/><stop stop-opacity="1" stop-color="rgb(91.712952%, 5.194092%, 5.993652%)" offset="0.398438"/><stop stop-opacity="1" stop-color="rgb(91.503906%, 5.393982%, 6.193542%)" offset="0.40625"/><stop stop-opacity="1" stop-color="rgb(91.204834%, 5.693054%, 6.492615%)" offset="0.421875"/><stop stop-opacity="1" stop-color="rgb(90.814209%, 5.892944%, 6.88324%)" offset="0.4375"/><stop stop-opacity="1" stop-color="rgb(90.515137%, 5.992126%, 7.089233%)" offset="0.445312"/><stop stop-opacity="1" stop-color="rgb(90.307617%, 6.190491%, 7.099915%)" offset="0.453125"/><stop stop-opacity="1" stop-color="rgb(90.008545%, 6.295776%, 7.292175%)" offset="0.46875"/><stop stop-opacity="1" stop-color="rgb(89.709473%, 6.394958%, 7.565308%)" offset="0.476563"/><stop stop-opacity="1" stop-color="rgb(89.500427%, 6.596375%, 7.720947%)" offset="0.484375"/><stop stop-opacity="1" stop-color="rgb(89.201355%, 6.896973%, 7.798767%)" offset="0.5"/><stop stop-opacity="1" stop-color="rgb(88.81073%, 7.095337%, 7.989502%)" offset="0.515625"/><stop stop-opacity="1" stop-color="rgb(88.511658%, 7.194519%, 8.285522%)" offset="0.523438"/><stop stop-opacity="1" stop-color="rgb(88.304138%, 7.392883%, 8.493042%)" offset="0.53125"/><stop stop-opacity="1" stop-color="rgb(88.005066%, 7.644653%, 8.79364%)" offset="0.546875"/><stop stop-opacity="1" stop-color="rgb(87.661743%, 7.794189%, 8.99353%)" offset="0.5625"/><stop stop-opacity="1" stop-color="rgb(87.413025%, 7.891846%, 9.092712%)" offset="0.570312"/><stop stop-opacity="1" stop-color="rgb(87.207031%, 8.09021%, 9.289551%)" offset="0.578125"/><stop stop-opacity="1" stop-color="rgb(86.907959%, 8.195496%, 9.590149%)" offset="0.59375"/><stop stop-opacity="1" stop-color="rgb(86.608887%, 8.294678%, 9.791565%)" offset="0.601562"/><stop stop-opacity="1" stop-color="rgb(86.401367%, 8.496094%, 9.799194%)" offset="0.609375"/><stop stop-opacity="1" stop-color="rgb(86.102295%, 8.796692%, 9.996033%)" offset="0.625"/><stop stop-opacity="1" stop-color="rgb(85.71167%, 8.995056%, 10.386658%)" offset="0.640625"/><stop stop-opacity="1" stop-color="rgb(85.412598%, 9.094238%, 10.68573%)" offset="0.648437"/><stop stop-opacity="1" stop-color="rgb(85.203552%, 9.294128%, 10.89325%)" offset="0.65625"/><stop stop-opacity="1" stop-color="rgb(84.90448%, 9.397888%, 10.998535%)" offset="0.671875"/><stop stop-opacity="1" stop-color="rgb(84.513855%, 9.588623%, 11.18927%)" offset="0.6875"/><stop stop-opacity="1" stop-color="rgb(84.214783%, 9.883118%, 11.482239%)" offset="0.695312"/><stop stop-opacity="1" stop-color="rgb(84.007263%, 10.090637%, 11.689758%)" offset="0.703125"/><stop stop-opacity="1" stop-color="rgb(83.708191%, 10.195923%, 11.79657%)" offset="0.71875"/><stop stop-opacity="1" stop-color="rgb(83.409119%, 10.295105%, 11.895752%)" offset="0.726562"/><stop stop-opacity="1" stop-color="rgb(83.201599%, 10.496521%, 12.097168%)" offset="0.734375"/><stop stop-opacity="1" stop-color="rgb(82.902527%, 10.797119%, 12.347412%)" offset="0.75"/><stop stop-opacity="1" stop-color="rgb(82.559204%, 10.995483%, 12.496948%)" offset="0.765625"/><stop stop-opacity="1" stop-color="rgb(82.30896%, 11.09314%, 12.594604%)" offset="0.773438"/><stop stop-opacity="1" stop-color="rgb(82.104492%, 11.29303%, 12.792969%)" offset="0.78125"/><stop stop-opacity="1" stop-color="rgb(81.80542%, 11.398315%, 13.093567%)" offset="0.796875"/><stop stop-opacity="1" stop-color="rgb(81.414795%, 11.58905%, 13.484192%)" offset="0.8125"/><stop stop-opacity="1" stop-color="rgb(81.115723%, 11.883545%, 13.68866%)" offset="0.820312"/><stop stop-opacity="1" stop-color="rgb(80.906677%, 12.091064%, 13.699341%)" offset="0.828125"/><stop stop-opacity="1" stop-color="rgb(80.607605%, 12.19635%, 13.891602%)" offset="0.84375"/><stop stop-opacity="1" stop-color="rgb(80.308533%, 12.271118%, 14.189148%)" offset="0.851563"/><stop stop-opacity="1" stop-color="rgb(80.101013%, 12.42218%, 14.395142%)" offset="0.859375"/><stop stop-opacity="1" stop-color="rgb(79.801941%, 12.5%, 14.498901%)" offset="0.875"/><stop stop-opacity="1" stop-color="rgb(79.411316%, 12.690735%, 14.691162%)" offset="0.890625"/><stop stop-opacity="1" stop-color="rgb(79.112244%, 12.986755%, 14.985657%)" offset="0.898438"/><stop stop-opacity="1" stop-color="rgb(78.903198%, 13.194275%, 15.193176%)" offset="0.90625"/><stop stop-opacity="1" stop-color="rgb(78.604126%, 13.298035%, 15.493774%)" offset="0.921875"/><stop stop-opacity="1" stop-color="rgb(78.213501%, 13.48877%, 15.693665%)" offset="0.9375"/><stop stop-opacity="1" stop-color="rgb(77.914429%, 13.783264%, 15.792847%)" offset="0.945312"/><stop stop-opacity="1" stop-color="rgb(77.706909%, 13.990784%, 15.989685%)" offset="0.953125"/><stop stop-opacity="1" stop-color="rgb(77.600098%, 14.096069%, 16.290283%)" offset="0.96875"/><stop stop-opacity="1" stop-color="rgb(77.52533%, 14.195251%, 16.491699%)" offset="0.976562"/><stop stop-opacity="1" stop-color="rgb(77.374268%, 14.395142%, 16.499329%)" offset="0.984375"/><stop stop-opacity="1" stop-color="rgb(77.101135%, 14.498901%, 16.696167%)" offset="1"/></linearGradient></defs><g clip-path="url(#0a233c8cbe)"><g clip-path="url(#c5ffbe42bf)"><g clip-path="url(#7eae41ecad)"><g clip-path="url(#206b96a3d0)"><path fill="url(#252e57775f)" d="M 322.207031 -25.011719 L -185.539062 327.050781 L 166.523438 834.796875 L 674.269531 482.734375 Z M 322.207031 -25.011719 " fill-rule="nonzero"/></g></g></g></g><path fill="#ffffff" d="M 355.003906 386.125 L 202.6875 298.183594 C 187.882812 289.636719 169.375 300.320312 169.375 317.417969 L 169.375 493.292969 C 169.375 510.390625 187.882812 521.074219 202.6875 512.527344 L 355.003906 424.589844 C 369.808594 416.042969 369.808594 394.671875 355.003906 386.125 L 202.6875 298.183594 C 187.882812 289.636719 169.375 300.320312 169.375 317.417969 L 169.375 493.292969 C 169.375 510.390625 187.882812 521.074219 202.6875 512.527344 L 355.003906 424.589844 C 369.808594 416.042969 369.808594 394.671875 355.003906 386.125 " fill-opacity="1" fill-rule="nonzero"/><path stroke-linecap="butt" transform="matrix(0.75, 0, 0, 0.75, 555.81413, 499.181371)" fill="none" stroke-linejoin="miter" d="M -0.00217368 1.997756 L 1149.091634 1.997756 " stroke="#000000" stroke-width="4" stroke-opacity="1" stroke-miterlimit="4"/><g fill="#ff0000" fill-opacity="1"><g transform="translate(525.347577, 425.315165)"><g><path d="M 90.328125 0 L 15.453125 0 C 13.585938 0 12.238281 -0.414062 11.40625 -1.25 C 10.570312 -2.082031 10.15625 -3.429688 10.15625 -5.296875 L 10.15625 -100.640625 C 10.15625 -102.492188 10.570312 -103.835938 11.40625 -104.671875 C 12.238281 -105.515625 13.585938 -105.9375 15.453125 -105.9375 L 38.25 -105.9375 C 40.113281 -105.9375 41.460938 -105.515625 42.296875 -104.671875 C 43.128906 -103.835938 43.546875 -102.492188 43.546875 -100.640625 L 43.546875 -27.8125 L 63.703125 -27.8125 L 63.703125 -51.640625 C 63.703125 -53.503906 64.117188 -54.851562 64.953125 -55.6875 C 65.785156 -56.519531 67.132812 -56.9375 69 -56.9375 L 90.328125 -56.9375 C 92.191406 -56.9375 93.539062 -56.519531 94.375 -55.6875 C 95.207031 -54.851562 95.625 -53.503906 95.625 -51.640625 L 95.625 -5.296875 C 95.625 -3.429688 95.207031 -2.082031 94.375 -1.25 C 93.539062 -0.414062 92.191406 0 90.328125 0 Z M 90.328125 0 "/></g></g></g><g fill="#ff0000" fill-opacity="1"><g transform="translate(627.601345, 425.315165)"><g><path d="M 48.546875 -75.03125 L 41.640625 -52.671875 L 64.734375 -52.671875 L 57.8125 -75.03125 C 57.425781 -75.914062 57.007812 -76.550781 56.5625 -76.9375 C 56.125 -77.332031 55.613281 -77.53125 55.03125 -77.53125 L 51.34375 -77.53125 C 50.757812 -77.53125 50.242188 -77.332031 49.796875 -76.9375 C 49.359375 -76.550781 48.941406 -75.914062 48.546875 -75.03125 Z M 40.171875 -5.296875 C 40.171875 -3.429688 39.75 -2.082031 38.90625 -1.25 C 38.070312 -0.414062 36.726562 0 34.875 0 L 13.234375 0 C 11.378906 0 10.03125 -0.414062 9.1875 -1.25 C 8.351562 -2.082031 7.9375 -3.429688 7.9375 -5.296875 L 7.9375 -44.140625 C 7.9375 -47.078125 8.398438 -50.457031 9.328125 -54.28125 C 10.265625 -58.113281 11.71875 -62.578125 13.6875 -67.671875 L 26.484375 -101.078125 C 27.066406 -102.742188 27.972656 -103.96875 29.203125 -104.75 C 30.429688 -105.539062 32.023438 -105.9375 33.984375 -105.9375 L 73.5625 -105.9375 C 75.425781 -105.9375 76.96875 -105.539062 78.1875 -104.75 C 79.414062 -103.96875 80.328125 -102.742188 80.921875 -101.078125 L 93.71875 -67.671875 C 95.675781 -62.578125 97.117188 -58.113281 98.046875 -54.28125 C 98.984375 -50.457031 99.453125 -47.078125 99.453125 -44.140625 L 99.453125 -5.296875 C 99.453125 -3.429688 99.035156 -2.082031 98.203125 -1.25 C 97.367188 -0.414062 96.019531 0 94.15625 0 L 71.9375 0 C 69.976562 0 68.53125 -0.414062 67.59375 -1.25 C 66.664062 -2.082031 66.203125 -3.429688 66.203125 -5.296875 L 66.203125 -25.890625 L 40.171875 -25.890625 Z M 40.171875 -5.296875 "/></g></g></g><g fill="#ff0000" fill-opacity="1"><g transform="translate(735.004585, 425.315165)"><g><path d="M 100.34375 -27.8125 C 100.34375 -23.289062 99.675781 -19.191406 98.34375 -15.515625 C 97.019531 -11.835938 94.664062 -8.695312 91.28125 -6.09375 C 87.90625 -3.5 83.273438 -1.46875 77.390625 0 C 71.503906 1.46875 64 2.203125 54.875 2.203125 C 45.75 2.203125 38.242188 1.46875 32.359375 0 C 26.484375 -1.46875 21.851562 -3.5 18.46875 -6.09375 C 15.082031 -8.695312 12.726562 -11.835938 11.40625 -15.515625 C 10.082031 -19.191406 9.421875 -23.289062 9.421875 -27.8125 L 9.421875 -100.640625 C 9.421875 -102.492188 9.835938 -103.835938 10.671875 -104.671875 C 11.503906 -105.515625 12.851562 -105.9375 14.71875 -105.9375 L 37.8125 -105.9375 C 39.675781 -105.9375 41.023438 -105.515625 41.859375 -104.671875 C 42.691406 -103.835938 43.109375 -102.492188 43.109375 -100.640625 L 43.109375 -33.546875 C 43.109375 -31.585938 43.84375 -29.941406 45.3125 -28.609375 C 46.78125 -27.285156 50.066406 -26.625 55.171875 -26.625 C 60.367188 -26.625 63.703125 -27.285156 65.171875 -28.609375 C 66.648438 -29.941406 67.390625 -31.585938 67.390625 -33.546875 L 67.390625 -100.640625 C 67.390625 -102.492188 67.804688 -103.835938 68.640625 -104.671875 C 69.472656 -105.515625 70.820312 -105.9375 72.6875 -105.9375 L 95.046875 -105.9375 C 96.910156 -105.9375 98.257812 -105.515625 99.09375 -104.671875 C 99.925781 -103.835938 100.34375 -102.492188 100.34375 -100.640625 Z M 100.34375 -27.8125 "/></g></g></g><g fill="#ff0000" fill-opacity="1"><g transform="translate(844.761868, 425.315165)"><g><path d="M 91.078125 0 L 44.71875 0 C 32.457031 0 23.359375 -2.453125 17.421875 -7.359375 C 11.492188 -12.265625 8.53125 -19.816406 8.53125 -30.015625 L 8.53125 -75.921875 C 8.53125 -86.117188 11.492188 -93.671875 17.421875 -98.578125 C 23.359375 -103.484375 32.457031 -105.9375 44.71875 -105.9375 L 81.5 -105.9375 C 83.363281 -105.9375 84.710938 -105.515625 85.546875 -104.671875 C 86.378906 -103.835938 86.796875 -102.492188 86.796875 -100.640625 L 86.796875 -82.828125 C 86.796875 -80.960938 86.378906 -79.613281 85.546875 -78.78125 C 84.710938 -77.945312 83.363281 -77.53125 81.5 -77.53125 L 50.90625 -77.53125 C 47.863281 -77.53125 45.609375 -76.914062 44.140625 -75.6875 C 42.671875 -74.46875 41.9375 -72.628906 41.9375 -70.171875 L 41.9375 -35.015625 C 41.9375 -32.566406 42.5 -30.753906 43.625 -29.578125 C 44.75 -28.398438 46.441406 -27.8125 48.703125 -27.8125 L 62.96875 -27.8125 L 62.96875 -50.765625 C 62.96875 -52.617188 63.382812 -53.960938 64.21875 -54.796875 C 65.050781 -55.628906 66.398438 -56.046875 68.265625 -56.046875 L 91.078125 -56.046875 C 92.929688 -56.046875 94.273438 -55.628906 95.109375 -54.796875 C 95.941406 -53.960938 96.359375 -52.617188 96.359375 -50.765625 L 96.359375 -5.296875 C 96.359375 -3.429688 95.941406 -2.082031 95.109375 -1.25 C 94.273438 -0.414062 92.929688 0 91.078125 0 Z M 91.078125 0 "/></g></g></g><g fill="#ff0000" fill-opacity="1"><g transform="translate(948.928297, 425.315165)"><g><path d="M 38.25 0 L 15.453125 0 C 13.585938 0 12.238281 -0.414062 11.40625 -1.25 C 10.570312 -2.082031 10.15625 -3.429688 10.15625 -5.296875 L 10.15625 -100.640625 C 10.15625 -102.492188 10.570312 -103.835938 11.40625 -104.671875 C 12.238281 -105.515625 13.585938 -105.9375 15.453125 -105.9375 L 38.25 -105.9375 C 40.113281 -105.9375 41.460938 -105.515625 42.296875 -104.671875 C 43.128906 -103.835938 43.546875 -102.492188 43.546875 -100.640625 L 43.546875 -68.703125 L 68.125 -68.703125 L 68.125 -100.640625 C 68.125 -102.492188 68.539062 -103.835938 69.375 -104.671875 C 70.207031 -105.515625 71.554688 -105.9375 73.421875 -105.9375 L 96.21875 -105.9375 C 98.082031 -105.9375 99.429688 -105.515625 100.265625 -104.671875 C 101.097656 -103.835938 101.515625 -102.492188 101.515625 -100.640625 L 101.515625 -5.296875 C 101.515625 -3.429688 101.097656 -2.082031 100.265625 -1.25 C 99.429688 -0.414062 98.082031 0 96.21875 0 L 73.421875 0 C 71.554688 0 70.207031 -0.414062 69.375 -1.25 C 68.539062 -2.082031 68.125 -3.429688 68.125 -5.296875 L 68.125 -37.953125 L 43.546875 -37.953125 L 43.546875 -5.296875 C 43.546875 -3.429688 43.128906 -2.082031 42.296875 -1.25 C 41.460938 -0.414062 40.113281 0 38.25 0 Z M 38.25 0 "/></g></g></g><g fill="#ff0000" fill-opacity="1"><g transform="translate(1060.598237, 425.315165)"><g><path d="M 38.25 0 L 15.453125 0 C 13.585938 0 12.238281 -0.414062 11.40625 -1.25 C 10.570312 -2.082031 10.15625 -3.429688 10.15625 -5.296875 L 10.15625 -100.640625 C 10.15625 -102.492188 10.570312 -103.835938 11.40625 -104.671875 C 12.238281 -105.515625 13.585938 -105.9375 15.453125 -105.9375 L 38.25 -105.9375 C 40.113281 -105.9375 41.460938 -105.515625 42.296875 -104.671875 C 43.128906 -103.835938 43.546875 -102.492188 43.546875 -100.640625 L 43.546875 -68.703125 L 68.125 -68.703125 L 68.125 -100.640625 C 68.125 -102.492188 68.539062 -103.835938 69.375 -104.671875 C 70.207031 -105.515625 71.554688 -105.9375 73.421875 -105.9375 L 96.21875 -105.9375 C 98.082031 -105.9375 99.429688 -105.515625 100.265625 -104.671875 C 101.097656 -103.835938 101.515625 -102.492188 101.515625 -100.640625 L 101.515625 -5.296875 C 101.515625 -3.429688 101.097656 -2.082031 100.265625 -1.25 C 99.429688 -0.414062 98.082031 0 96.21875 0 L 73.421875 0 C 71.554688 0 70.207031 -0.414062 69.375 -1.25 C 68.539062 -2.082031 68.125 -3.429688 68.125 -5.296875 L 68.125 -37.953125 L 43.546875 -37.953125 L 43.546875 -5.296875 C 43.546875 -3.429688 43.128906 -2.082031 42.296875 -1.25 C 41.460938 -0.414062 40.113281 0 38.25 0 Z M 38.25 0 "/></g></g></g><g fill="#ff0000" fill-opacity="1"><g transform="translate(1172.268178, 425.315165)"><g><path d="M 100.34375 -27.8125 C 100.34375 -23.289062 99.675781 -19.191406 98.34375 -15.515625 C 97.019531 -11.835938 94.664062 -8.695312 91.28125 -6.09375 C 87.90625 -3.5 83.273438 -1.46875 77.390625 0 C 71.503906 1.46875 64 2.203125 54.875 2.203125 C 45.75 2.203125 38.242188 1.46875 32.359375 0 C 26.484375 -1.46875 21.851562 -3.5 18.46875 -6.09375 C 15.082031 -8.695312 12.726562 -11.835938 11.40625 -15.515625 C 10.082031 -19.191406 9.421875 -23.289062 9.421875 -27.8125 L 9.421875 -100.640625 C 9.421875 -102.492188 9.835938 -103.835938 10.671875 -104.671875 C 11.503906 -105.515625 12.851562 -105.9375 14.71875 -105.9375 L 37.8125 -105.9375 C 39.675781 -105.9375 41.023438 -105.515625 41.859375 -104.671875 C 42.691406 -103.835938 43.109375 -102.492188 43.109375 -100.640625 L 43.109375 -33.546875 C 43.109375 -31.585938 43.84375 -29.941406 45.3125 -28.609375 C 46.78125 -27.285156 50.066406 -26.625 55.171875 -26.625 C 60.367188 -26.625 63.703125 -27.285156 65.171875 -28.609375 C 66.648438 -29.941406 67.390625 -31.585938 67.390625 -33.546875 L 67.390625 -100.640625 C 67.390625 -102.492188 67.804688 -103.835938 68.640625 -104.671875 C 69.472656 -105.515625 70.820312 -105.9375 72.6875 -105.9375 L 95.046875 -105.9375 C 96.910156 -105.9375 98.257812 -105.515625 99.09375 -104.671875 C 99.925781 -103.835938 100.34375 -102.492188 100.34375 -100.640625 Z M 100.34375 -27.8125 "/></g></g></g><g fill="#ff0000" fill-opacity="1"><g transform="translate(1282.025461, 425.315165)"><g><path d="M 71.9375 0 L 15.453125 0 C 13.585938 0 12.238281 -0.414062 11.40625 -1.25 C 10.570312 -2.082031 10.15625 -3.429688 10.15625 -5.296875 L 10.15625 -100.640625 C 10.15625 -102.492188 10.570312 -103.835938 11.40625 -104.671875 C 12.238281 -105.515625 13.585938 -105.9375 15.453125 -105.9375 L 62.375 -105.9375 C 71.988281 -105.9375 79.097656 -104.09375 83.703125 -100.40625 C 88.316406 -96.726562 90.625 -91.066406 90.625 -83.421875 L 90.625 -76.359375 C 90.625 -72.234375 89.910156 -68.867188 88.484375 -66.265625 C 87.066406 -63.671875 84.890625 -61.738281 81.953125 -60.46875 C 88.222656 -59.875 92.878906 -57.710938 95.921875 -53.984375 C 98.960938 -50.265625 100.484375 -44.820312 100.484375 -37.65625 L 100.484375 -24.125 C 100.484375 -15.882812 98.15625 -9.800781 93.5 -5.875 C 88.84375 -1.957031 81.65625 0 71.9375 0 Z M 43.25 -80.921875 L 43.25 -65.03125 L 55.765625 -65.03125 C 57.628906 -65.03125 59.023438 -65.519531 59.953125 -66.5 C 60.878906 -67.476562 61.34375 -68.953125 61.34375 -70.921875 L 61.34375 -75.03125 C 61.34375 -76.988281 60.878906 -78.457031 59.953125 -79.4375 C 59.023438 -80.425781 57.628906 -80.921875 55.765625 -80.921875 Z M 43.25 -42.375 L 43.25 -25.015625 L 62.375 -25.015625 C 64.238281 -25.015625 65.632812 -25.503906 66.5625 -26.484375 C 67.5 -27.460938 67.96875 -28.929688 67.96875 -30.890625 L 67.96875 -36.640625 C 67.96875 -38.597656 67.5 -40.039062 66.5625 -40.96875 C 65.632812 -41.90625 64.238281 -42.375 62.375 -42.375 Z M 43.25 -42.375 "/></g></g></g><g fill="#00ffff" fill-opacity="1"><g transform="translate(524.106441, 430.691316)"><g><path d="M 90.328125 0 L 15.453125 0 C 13.585938 0 12.238281 -0.414062 11.40625 -1.25 C 10.570312 -2.082031 10.15625 -3.429688 10.15625 -5.296875 L 10.15625 -100.640625 C 10.15625 -102.492188 10.570312 -103.835938 11.40625 -104.671875 C 12.238281 -105.515625 13.585938 -105.9375 15.453125 -105.9375 L 38.25 -105.9375 C 40.113281 -105.9375 41.460938 -105.515625 42.296875 -104.671875 C 43.128906 -103.835938 43.546875 -102.492188 43.546875 -100.640625 L 43.546875 -27.8125 L 63.703125 -27.8125 L 63.703125 -51.640625 C 63.703125 -53.503906 64.117188 -54.851562 64.953125 -55.6875 C 65.785156 -56.519531 67.132812 -56.9375 69 -56.9375 L 90.328125 -56.9375 C 92.191406 -56.9375 93.539062 -56.519531 94.375 -55.6875 C 95.207031 -54.851562 95.625 -53.503906 95.625 -51.640625 L 95.625 -5.296875 C 95.625 -3.429688 95.207031 -2.082031 94.375 -1.25 C 93.539062 -0.414062 92.191406 0 90.328125 0 Z M 90.328125 0 "/></g></g></g><g fill="#00ffff" fill-opacity="1"><g transform="translate(626.360209, 430.691316)"><g><path d="M 48.546875 -75.03125 L 41.640625 -52.671875 L 64.734375 -52.671875 L 57.8125 -75.03125 C 57.425781 -75.914062 57.007812 -76.550781 56.5625 -76.9375 C 56.125 -77.332031 55.613281 -77.53125 55.03125 -77.53125 L 51.34375 -77.53125 C 50.757812 -77.53125 50.242188 -77.332031 49.796875 -76.9375 C 49.359375 -76.550781 48.941406 -75.914062 48.546875 -75.03125 Z M 40.171875 -5.296875 C 40.171875 -3.429688 39.75 -2.082031 38.90625 -1.25 C 38.070312 -0.414062 36.726562 0 34.875 0 L 13.234375 0 C 11.378906 0 10.03125 -0.414062 9.1875 -1.25 C 8.351562 -2.082031 7.9375 -3.429688 7.9375 -5.296875 L 7.9375 -44.140625 C 7.9375 -47.078125 8.398438 -50.457031 9.328125 -54.28125 C 10.265625 -58.113281 11.71875 -62.578125 13.6875 -67.671875 L 26.484375 -101.078125 C 27.066406 -102.742188 27.972656 -103.96875 29.203125 -104.75 C 30.429688 -105.539062 32.023438 -105.9375 33.984375 -105.9375 L 73.5625 -105.9375 C 75.425781 -105.9375 76.96875 -105.539062 78.1875 -104.75 C 79.414062 -103.96875 80.328125 -102.742188 80.921875 -101.078125 L 93.71875 -67.671875 C 95.675781 -62.578125 97.117188 -58.113281 98.046875 -54.28125 C 98.984375 -50.457031 99.453125 -47.078125 99.453125 -44.140625 L 99.453125 -5.296875 C 99.453125 -3.429688 99.035156 -2.082031 98.203125 -1.25 C 97.367188 -0.414062 96.019531 0 94.15625 0 L 71.9375 0 C 69.976562 0 68.53125 -0.414062 67.59375 -1.25 C 66.664062 -2.082031 66.203125 -3.429688 66.203125 -5.296875 L 66.203125 -25.890625 L 40.171875 -25.890625 Z M 40.171875 -5.296875 "/></g></g></g><g fill="#00ffff" fill-opacity="1"><g transform="translate(733.763449, 430.691316)"><g><path d="M 100.34375 -27.8125 C 100.34375 -23.289062 99.675781 -19.191406 98.34375 -15.515625 C 97.019531 -11.835938 94.664062 -8.695312 91.28125 -6.09375 C 87.90625 -3.5 83.273438 -1.46875 77.390625 0 C 71.503906 1.46875 64 2.203125 54.875 2.203125 C 45.75 2.203125 38.242188 1.46875 32.359375 0 C 26.484375 -1.46875 21.851562 -3.5 18.46875 -6.09375 C 15.082031 -8.695312 12.726562 -11.835938 11.40625 -15.515625 C 10.082031 -19.191406 9.421875 -23.289062 9.421875 -27.8125 L 9.421875 -100.640625 C 9.421875 -102.492188 9.835938 -103.835938 10.671875 -104.671875 C 11.503906 -105.515625 12.851562 -105.9375 14.71875 -105.9375 L 37.8125 -105.9375 C 39.675781 -105.9375 41.023438 -105.515625 41.859375 -104.671875 C 42.691406 -103.835938 43.109375 -102.492188 43.109375 -100.640625 L 43.109375 -33.546875 C 43.109375 -31.585938 43.84375 -29.941406 45.3125 -28.609375 C 46.78125 -27.285156 50.066406 -26.625 55.171875 -26.625 C 60.367188 -26.625 63.703125 -27.285156 65.171875 -28.609375 C 66.648438 -29.941406 67.390625 -31.585938 67.390625 -33.546875 L 67.390625 -100.640625 C 67.390625 -102.492188 67.804688 -103.835938 68.640625 -104.671875 C 69.472656 -105.515625 70.820312 -105.9375 72.6875 -105.9375 L 95.046875 -105.9375 C 96.910156 -105.9375 98.257812 -105.515625 99.09375 -104.671875 C 99.925781 -103.835938 100.34375 -102.492188 100.34375 -100.640625 Z M 100.34375 -27.8125 "/></g></g></g><g fill="#00ffff" fill-opacity="1"><g transform="translate(843.520732, 430.691316)"><g><path d="M 91.078125 0 L 44.71875 0 C 32.457031 0 23.359375 -2.453125 17.421875 -7.359375 C 11.492188 -12.265625 8.53125 -19.816406 8.53125 -30.015625 L 8.53125 -75.921875 C 8.53125 -86.117188 11.492188 -93.671875 17.421875 -98.578125 C 23.359375 -103.484375 32.457031 -105.9375 44.71875 -105.9375 L 81.5 -105.9375 C 83.363281 -105.9375 84.710938 -105.515625 85.546875 -104.671875 C 86.378906 -103.835938 86.796875 -102.492188 86.796875 -100.640625 L 86.796875 -82.828125 C 86.796875 -80.960938 86.378906 -79.613281 85.546875 -78.78125 C 84.710938 -77.945312 83.363281 -77.53125 81.5 -77.53125 L 50.90625 -77.53125 C 47.863281 -77.53125 45.609375 -76.914062 44.140625 -75.6875 C 42.671875 -74.46875 41.9375 -72.628906 41.9375 -70.171875 L 41.9375 -35.015625 C 41.9375 -32.566406 42.5 -30.753906 43.625 -29.578125 C 44.75 -28.398438 46.441406 -27.8125 48.703125 -27.8125 L 62.96875 -27.8125 L 62.96875 -50.765625 C 62.96875 -52.617188 63.382812 -53.960938 64.21875 -54.796875 C 65.050781 -55.628906 66.398438 -56.046875 68.265625 -56.046875 L 91.078125 -56.046875 C 92.929688 -56.046875 94.273438 -55.628906 95.109375 -54.796875 C 95.941406 -53.960938 96.359375 -52.617188 96.359375 -50.765625 L 96.359375 -5.296875 C 96.359375 -3.429688 95.941406 -2.082031 95.109375 -1.25 C 94.273438 -0.414062 92.929688 0 91.078125 0 Z M 91.078125 0 "/></g></g></g><g fill="#00ffff" fill-opacity="1"><g transform="translate(947.687161, 430.691316)"><g><path d="M 38.25 0 L 15.453125 0 C 13.585938 0 12.238281 -0.414062 11.40625 -1.25 C 10.570312 -2.082031 10.15625 -3.429688 10.15625 -5.296875 L 10.15625 -100.640625 C 10.15625 -102.492188 10.570312 -103.835938 11.40625 -104.671875 C 12.238281 -105.515625 13.585938 -105.9375 15.453125 -105.9375 L 38.25 -105.9375 C 40.113281 -105.9375 41.460938 -105.515625 42.296875 -104.671875 C 43.128906 -103.835938 43.546875 -102.492188 43.546875 -100.640625 L 43.546875 -68.703125 L 68.125 -68.703125 L 68.125 -100.640625 C 68.125 -102.492188 68.539062 -103.835938 69.375 -104.671875 C 70.207031 -105.515625 71.554688 -105.9375 73.421875 -105.9375 L 96.21875 -105.9375 C 98.082031 -105.9375 99.429688 -105.515625 100.265625 -104.671875 C 101.097656 -103.835938 101.515625 -102.492188 101.515625 -100.640625 L 101.515625 -5.296875 C 101.515625 -3.429688 101.097656 -2.082031 100.265625 -1.25 C 99.429688 -0.414062 98.082031 0 96.21875 0 L 73.421875 0 C 71.554688 0 70.207031 -0.414062 69.375 -1.25 C 68.539062 -2.082031 68.125 -3.429688 68.125 -5.296875 L 68.125 -37.953125 L 43.546875 -37.953125 L 43.546875 -5.296875 C 43.546875 -3.429688 43.128906 -2.082031 42.296875 -1.25 C 41.460938 -0.414062 40.113281 0 38.25 0 Z M 38.25 0 "/></g></g></g><g fill="#00ffff" fill-opacity="1"><g transform="translate(1059.357101, 430.691316)"><g><path d="M 38.25 0 L 15.453125 0 C 13.585938 0 12.238281 -0.414062 11.40625 -1.25 C 10.570312 -2.082031 10.15625 -3.429688 10.15625 -5.296875 L 10.15625 -100.640625 C 10.15625 -102.492188 10.570312 -103.835938 11.40625 -104.671875 C 12.238281 -105.515625 13.585938 -105.9375 15.453125 -105.9375 L 38.25 -105.9375 C 40.113281 -105.9375 41.460938 -105.515625 42.296875 -104.671875 C 43.128906 -103.835938 43.546875 -102.492188 43.546875 -100.640625 L 43.546875 -68.703125 L 68.125 -68.703125 L 68.125 -100.640625 C 68.125 -102.492188 68.539062 -103.835938 69.375 -104.671875 C 70.207031 -105.515625 71.554688 -105.9375 73.421875 -105.9375 L 96.21875 -105.9375 C 98.082031 -105.9375 99.429688 -105.515625 100.265625 -104.671875 C 101.097656 -103.835938 101.515625 -102.492188 101.515625 -100.640625 L 101.515625 -5.296875 C 101.515625 -3.429688 101.097656 -2.082031 100.265625 -1.25 C 99.429688 -0.414062 98.082031 0 96.21875 0 L 73.421875 0 C 71.554688 0 70.207031 -0.414062 69.375 -1.25 C 68.539062 -2.082031 68.125 -3.429688 68.125 -5.296875 L 68.125 -37.953125 L 43.546875 -37.953125 L 43.546875 -5.296875 C 43.546875 -3.429688 43.128906 -2.082031 42.296875 -1.25 C 41.460938 -0.414062 40.113281 0 38.25 0 Z M 38.25 0 "/></g></g></g><g fill="#00ffff" fill-opacity="1"><g transform="translate(1171.027042, 430.691316)"><g><path d="M 100.34375 -27.8125 C 100.34375 -23.289062 99.675781 -19.191406 98.34375 -15.515625 C 97.019531 -11.835938 94.664062 -8.695312 91.28125 -6.09375 C 87.90625 -3.5 83.273438 -1.46875 77.390625 0 C 71.503906 1.46875 64 2.203125 54.875 2.203125 C 45.75 2.203125 38.242188 1.46875 32.359375 0 C 26.484375 -1.46875 21.851562 -3.5 18.46875 -6.09375 C 15.082031 -8.695312 12.726562 -11.835938 11.40625 -15.515625 C 10.082031 -19.191406 9.421875 -23.289062 9.421875 -27.8125 L 9.421875 -100.640625 C 9.421875 -102.492188 9.835938 -103.835938 10.671875 -104.671875 C 11.503906 -105.515625 12.851562 -105.9375 14.71875 -105.9375 L 37.8125 -105.9375 C 39.675781 -105.9375 41.023438 -105.515625 41.859375 -104.671875 C 42.691406 -103.835938 43.109375 -102.492188 43.109375 -100.640625 L 43.109375 -33.546875 C 43.109375 -31.585938 43.84375 -29.941406 45.3125 -28.609375 C 46.78125 -27.285156 50.066406 -26.625 55.171875 -26.625 C 60.367188 -26.625 63.703125 -27.285156 65.171875 -28.609375 C 66.648438 -29.941406 67.390625 -31.585938 67.390625 -33.546875 L 67.390625 -100.640625 C 67.390625 -102.492188 67.804688 -103.835938 68.640625 -104.671875 C 69.472656 -105.515625 70.820312 -105.9375 72.6875 -105.9375 L 95.046875 -105.9375 C 96.910156 -105.9375 98.257812 -105.515625 99.09375 -104.671875 C 99.925781 -103.835938 100.34375 -102.492188 100.34375 -100.640625 Z M 100.34375 -27.8125 "/></g></g></g><g fill="#00ffff" fill-opacity="1"><g transform="translate(1280.784325, 430.691316)"><g><path d="M 71.9375 0 L 15.453125 0 C 13.585938 0 12.238281 -0.414062 11.40625 -1.25 C 10.570312 -2.082031 10.15625 -3.429688 10.15625 -5.296875 L 10.15625 -100.640625 C 10.15625 -102.492188 10.570312 -103.835938 11.40625 -104.671875 C 12.238281 -105.515625 13.585938 -105.9375 15.453125 -105.9375 L 62.375 -105.9375 C 71.988281 -105.9375 79.097656 -104.09375 83.703125 -100.40625 C 88.316406 -96.726562 90.625 -91.066406 90.625 -83.421875 L 90.625 -76.359375 C 90.625 -72.234375 89.910156 -68.867188 88.484375 -66.265625 C 87.066406 -63.671875 84.890625 -61.738281 81.953125 -60.46875 C 88.222656 -59.875 92.878906 -57.710938 95.921875 -53.984375 C 98.960938 -50.265625 100.484375 -44.820312 100.484375 -37.65625 L 100.484375 -24.125 C 100.484375 -15.882812 98.15625 -9.800781 93.5 -5.875 C 88.84375 -1.957031 81.65625 0 71.9375 0 Z M 43.25 -80.921875 L 43.25 -65.03125 L 55.765625 -65.03125 C 57.628906 -65.03125 59.023438 -65.519531 59.953125 -66.5 C 60.878906 -67.476562 61.34375 -68.953125 61.34375 -70.921875 L 61.34375 -75.03125 C 61.34375 -76.988281 60.878906 -78.457031 59.953125 -79.4375 C 59.023438 -80.425781 57.628906 -80.921875 55.765625 -80.921875 Z M 43.25 -42.375 L 43.25 -25.015625 L 62.375 -25.015625 C 64.238281 -25.015625 65.632812 -25.503906 66.5625 -26.484375 C 67.5 -27.460938 67.96875 -28.929688 67.96875 -30.890625 L 67.96875 -36.640625 C 67.96875 -38.597656 67.5 -40.039062 66.5625 -40.96875 C 65.632812 -41.90625 64.238281 -42.375 62.375 -42.375 Z M 43.25 -42.375 "/></g></g></g><g fill="#000000" fill-opacity="1"><g transform="translate(524.727009, 428.003239)"><g><path d="M 90.328125 0 L 15.453125 0 C 13.585938 0 12.238281 -0.414062 11.40625 -1.25 C 10.570312 -2.082031 10.15625 -3.429688 10.15625 -5.296875 L 10.15625 -100.640625 C 10.15625 -102.492188 10.570312 -103.835938 11.40625 -104.671875 C 12.238281 -105.515625 13.585938 -105.9375 15.453125 -105.9375 L 38.25 -105.9375 C 40.113281 -105.9375 41.460938 -105.515625 42.296875 -104.671875 C 43.128906 -103.835938 43.546875 -102.492188 43.546875 -100.640625 L 43.546875 -27.8125 L 63.703125 -27.8125 L 63.703125 -51.640625 C 63.703125 -53.503906 64.117188 -54.851562 64.953125 -55.6875 C 65.785156 -56.519531 67.132812 -56.9375 69 -56.9375 L 90.328125 -56.9375 C 92.191406 -56.9375 93.539062 -56.519531 94.375 -55.6875 C 95.207031 -54.851562 95.625 -53.503906 95.625 -51.640625 L 95.625 -5.296875 C 95.625 -3.429688 95.207031 -2.082031 94.375 -1.25 C 93.539062 -0.414062 92.191406 0 90.328125 0 Z M 90.328125 0 "/></g></g></g><g fill="#000000" fill-opacity="1"><g transform="translate(626.980777, 428.003239)"><g><path d="M 48.546875 -75.03125 L 41.640625 -52.671875 L 64.734375 -52.671875 L 57.8125 -75.03125 C 57.425781 -75.914062 57.007812 -76.550781 56.5625 -76.9375 C 56.125 -77.332031 55.613281 -77.53125 55.03125 -77.53125 L 51.34375 -77.53125 C 50.757812 -77.53125 50.242188 -77.332031 49.796875 -76.9375 C 49.359375 -76.550781 48.941406 -75.914062 48.546875 -75.03125 Z M 40.171875 -5.296875 C 40.171875 -3.429688 39.75 -2.082031 38.90625 -1.25 C 38.070312 -0.414062 36.726562 0 34.875 0 L 13.234375 0 C 11.378906 0 10.03125 -0.414062 9.1875 -1.25 C 8.351562 -2.082031 7.9375 -3.429688 7.9375 -5.296875 L 7.9375 -44.140625 C 7.9375 -47.078125 8.398438 -50.457031 9.328125 -54.28125 C 10.265625 -58.113281 11.71875 -62.578125 13.6875 -67.671875 L 26.484375 -101.078125 C 27.066406 -102.742188 27.972656 -103.96875 29.203125 -104.75 C 30.429688 -105.539062 32.023438 -105.9375 33.984375 -105.9375 L 73.5625 -105.9375 C 75.425781 -105.9375 76.96875 -105.539062 78.1875 -104.75 C 79.414062 -103.96875 80.328125 -102.742188 80.921875 -101.078125 L 93.71875 -67.671875 C 95.675781 -62.578125 97.117188 -58.113281 98.046875 -54.28125 C 98.984375 -50.457031 99.453125 -47.078125 99.453125 -44.140625 L 99.453125 -5.296875 C 99.453125 -3.429688 99.035156 -2.082031 98.203125 -1.25 C 97.367188 -0.414062 96.019531 0 94.15625 0 L 71.9375 0 C 69.976562 0 68.53125 -0.414062 67.59375 -1.25 C 66.664062 -2.082031 66.203125 -3.429688 66.203125 -5.296875 L 66.203125 -25.890625 L 40.171875 -25.890625 Z M 40.171875 -5.296875 "/></g></g></g><g fill="#000000" fill-opacity="1"><g transform="translate(734.384017, 428.003239)"><g><path d="M 100.34375 -27.8125 C 100.34375 -23.289062 99.675781 -19.191406 98.34375 -15.515625 C 97.019531 -11.835938 94.664062 -8.695312 91.28125 -6.09375 C 87.90625 -3.5 83.273438 -1.46875 77.390625 0 C 71.503906 1.46875 64 2.203125 54.875 2.203125 C 45.75 2.203125 38.242188 1.46875 32.359375 0 C 26.484375 -1.46875 21.851562 -3.5 18.46875 -6.09375 C 15.082031 -8.695312 12.726562 -11.835938 11.40625 -15.515625 C 10.082031 -19.191406 9.421875 -23.289062 9.421875 -27.8125 L 9.421875 -100.640625 C 9.421875 -102.492188 9.835938 -103.835938 10.671875 -104.671875 C 11.503906 -105.515625 12.851562 -105.9375 14.71875 -105.9375 L 37.8125 -105.9375 C 39.675781 -105.9375 41.023438 -105.515625 41.859375 -104.671875 C 42.691406 -103.835938 43.109375 -102.492188 43.109375 -100.640625 L 43.109375 -33.546875 C 43.109375 -31.585938 43.84375 -29.941406 45.3125 -28.609375 C 46.78125 -27.285156 50.066406 -26.625 55.171875 -26.625 C 60.367188 -26.625 63.703125 -27.285156 65.171875 -28.609375 C 66.648438 -29.941406 67.390625 -31.585938 67.390625 -33.546875 L 67.390625 -100.640625 C 67.390625 -102.492188 67.804688 -103.835938 68.640625 -104.671875 C 69.472656 -105.515625 70.820312 -105.9375 72.6875 -105.9375 L 95.046875 -105.9375 C 96.910156 -105.9375 98.257812 -105.515625 99.09375 -104.671875 C 99.925781 -103.835938 100.34375 -102.492188 100.34375 -100.640625 Z M 100.34375 -27.8125 "/></g></g></g><g fill="#000000" fill-opacity="1"><g transform="translate(844.1413, 428.003239)"><g><path d="M 91.078125 0 L 44.71875 0 C 32.457031 0 23.359375 -2.453125 17.421875 -7.359375 C 11.492188 -12.265625 8.53125 -19.816406 8.53125 -30.015625 L 8.53125 -75.921875 C 8.53125 -86.117188 11.492188 -93.671875 17.421875 -98.578125 C 23.359375 -103.484375 32.457031 -105.9375 44.71875 -105.9375 L 81.5 -105.9375 C 83.363281 -105.9375 84.710938 -105.515625 85.546875 -104.671875 C 86.378906 -103.835938 86.796875 -102.492188 86.796875 -100.640625 L 86.796875 -82.828125 C 86.796875 -80.960938 86.378906 -79.613281 85.546875 -78.78125 C 84.710938 -77.945312 83.363281 -77.53125 81.5 -77.53125 L 50.90625 -77.53125 C 47.863281 -77.53125 45.609375 -76.914062 44.140625 -75.6875 C 42.671875 -74.46875 41.9375 -72.628906 41.9375 -70.171875 L 41.9375 -35.015625 C 41.9375 -32.566406 42.5 -30.753906 43.625 -29.578125 C 44.75 -28.398438 46.441406 -27.8125 48.703125 -27.8125 L 62.96875 -27.8125 L 62.96875 -50.765625 C 62.96875 -52.617188 63.382812 -53.960938 64.21875 -54.796875 C 65.050781 -55.628906 66.398438 -56.046875 68.265625 -56.046875 L 91.078125 -56.046875 C 92.929688 -56.046875 94.273438 -55.628906 95.109375 -54.796875 C 95.941406 -53.960938 96.359375 -52.617188 96.359375 -50.765625 L 96.359375 -5.296875 C 96.359375 -3.429688 95.941406 -2.082031 95.109375 -1.25 C 94.273438 -0.414062 92.929688 0 91.078125 0 Z M 91.078125 0 "/></g></g></g><g fill="#000000" fill-opacity="1"><g transform="translate(948.307729, 428.003239)"><g><path d="M 38.25 0 L 15.453125 0 C 13.585938 0 12.238281 -0.414062 11.40625 -1.25 C 10.570312 -2.082031 10.15625 -3.429688 10.15625 -5.296875 L 10.15625 -100.640625 C 10.15625 -102.492188 10.570312 -103.835938 11.40625 -104.671875 C 12.238281 -105.515625 13.585938 -105.9375 15.453125 -105.9375 L 38.25 -105.9375 C 40.113281 -105.9375 41.460938 -105.515625 42.296875 -104.671875 C 43.128906 -103.835938 43.546875 -102.492188 43.546875 -100.640625 L 43.546875 -68.703125 L 68.125 -68.703125 L 68.125 -100.640625 C 68.125 -102.492188 68.539062 -103.835938 69.375 -104.671875 C 70.207031 -105.515625 71.554688 -105.9375 73.421875 -105.9375 L 96.21875 -105.9375 C 98.082031 -105.9375 99.429688 -105.515625 100.265625 -104.671875 C 101.097656 -103.835938 101.515625 -102.492188 101.515625 -100.640625 L 101.515625 -5.296875 C 101.515625 -3.429688 101.097656 -2.082031 100.265625 -1.25 C 99.429688 -0.414062 98.082031 0 96.21875 0 L 73.421875 0 C 71.554688 0 70.207031 -0.414062 69.375 -1.25 C 68.539062 -2.082031 68.125 -3.429688 68.125 -5.296875 L 68.125 -37.953125 L 43.546875 -37.953125 L 43.546875 -5.296875 C 43.546875 -3.429688 43.128906 -2.082031 42.296875 -1.25 C 41.460938 -0.414062 40.113281 0 38.25 0 Z M 38.25 0 "/></g></g></g><g fill="#000000" fill-opacity="1"><g transform="translate(1059.977669, 428.003239)"><g><path d="M 38.25 0 L 15.453125 0 C 13.585938 0 12.238281 -0.414062 11.40625 -1.25 C 10.570312 -2.082031 10.15625 -3.429688 10.15625 -5.296875 L 10.15625 -100.640625 C 10.15625 -102.492188 10.570312 -103.835938 11.40625 -104.671875 C 12.238281 -105.515625 13.585938 -105.9375 15.453125 -105.9375 L 38.25 -105.9375 C 40.113281 -105.9375 41.460938 -105.515625 42.296875 -104.671875 C 43.128906 -103.835938 43.546875 -102.492188 43.546875 -100.640625 L 43.546875 -68.703125 L 68.125 -68.703125 L 68.125 -100.640625 C 68.125 -102.492188 68.539062 -103.835938 69.375 -104.671875 C 70.207031 -105.515625 71.554688 -105.9375 73.421875 -105.9375 L 96.21875 -105.9375 C 98.082031 -105.9375 99.429688 -105.515625 100.265625 -104.671875 C 101.097656 -103.835938 101.515625 -102.492188 101.515625 -100.640625 L 101.515625 -5.296875 C 101.515625 -3.429688 101.097656 -2.082031 100.265625 -1.25 C 99.429688 -0.414062 98.082031 0 96.21875 0 L 73.421875 0 C 71.554688 0 70.207031 -0.414062 69.375 -1.25 C 68.539062 -2.082031 68.125 -3.429688 68.125 -5.296875 L 68.125 -37.953125 L 43.546875 -37.953125 L 43.546875 -5.296875 C 43.546875 -3.429688 43.128906 -2.082031 42.296875 -1.25 C 41.460938 -0.414062 40.113281 0 38.25 0 Z M 38.25 0 "/></g></g></g><g fill="#000000" fill-opacity="1"><g transform="translate(1171.64761, 428.003239)"><g><path d="M 100.34375 -27.8125 C 100.34375 -23.289062 99.675781 -19.191406 98.34375 -15.515625 C 97.019531 -11.835938 94.664062 -8.695312 91.28125 -6.09375 C 87.90625 -3.5 83.273438 -1.46875 77.390625 0 C 71.503906 1.46875 64 2.203125 54.875 2.203125 C 45.75 2.203125 38.242188 1.46875 32.359375 0 C 26.484375 -1.46875 21.851562 -3.5 18.46875 -6.09375 C 15.082031 -8.695312 12.726562 -11.835938 11.40625 -15.515625 C 10.082031 -19.191406 9.421875 -23.289062 9.421875 -27.8125 L 9.421875 -100.640625 C 9.421875 -102.492188 9.835938 -103.835938 10.671875 -104.671875 C 11.503906 -105.515625 12.851562 -105.9375 14.71875 -105.9375 L 37.8125 -105.9375 C 39.675781 -105.9375 41.023438 -105.515625 41.859375 -104.671875 C 42.691406 -103.835938 43.109375 -102.492188 43.109375 -100.640625 L 43.109375 -33.546875 C 43.109375 -31.585938 43.84375 -29.941406 45.3125 -28.609375 C 46.78125 -27.285156 50.066406 -26.625 55.171875 -26.625 C 60.367188 -26.625 63.703125 -27.285156 65.171875 -28.609375 C 66.648438 -29.941406 67.390625 -31.585938 67.390625 -33.546875 L 67.390625 -100.640625 C 67.390625 -102.492188 67.804688 -103.835938 68.640625 -104.671875 C 69.472656 -105.515625 70.820312 -105.9375 72.6875 -105.9375 L 95.046875 -105.9375 C 96.910156 -105.9375 98.257812 -105.515625 99.09375 -104.671875 C 99.925781 -103.835938 100.34375 -102.492188 100.34375 -100.640625 Z M 100.34375 -27.8125 "/></g></g></g><g fill="#000000" fill-opacity="1"><g transform="translate(1281.404893, 428.003239)"><g><path d="M 71.9375 0 L 15.453125 0 C 13.585938 0 12.238281 -0.414062 11.40625 -1.25 C 10.570312 -2.082031 10.15625 -3.429688 10.15625 -5.296875 L 10.15625 -100.640625 C 10.15625 -102.492188 10.570312 -103.835938 11.40625 -104.671875 C 12.238281 -105.515625 13.585938 -105.9375 15.453125 -105.9375 L 62.375 -105.9375 C 71.988281 -105.9375 79.097656 -104.09375 83.703125 -100.40625 C 88.316406 -96.726562 90.625 -91.066406 90.625 -83.421875 L 90.625 -76.359375 C 90.625 -72.234375 89.910156 -68.867188 88.484375 -66.265625 C 87.066406 -63.671875 84.890625 -61.738281 81.953125 -60.46875 C 88.222656 -59.875 92.878906 -57.710938 95.921875 -53.984375 C 98.960938 -50.265625 100.484375 -44.820312 100.484375 -37.65625 L 100.484375 -24.125 C 100.484375 -15.882812 98.15625 -9.800781 93.5 -5.875 C 88.84375 -1.957031 81.65625 0 71.9375 0 Z M 43.25 -80.921875 L 43.25 -65.03125 L 55.765625 -65.03125 C 57.628906 -65.03125 59.023438 -65.519531 59.953125 -66.5 C 60.878906 -67.476562 61.34375 -68.953125 61.34375 -70.921875 L 61.34375 -75.03125 C 61.34375 -76.988281 60.878906 -78.457031 59.953125 -79.4375 C 59.023438 -80.425781 57.628906 -80.921875 55.765625 -80.921875 Z M 43.25 -42.375 L 43.25 -25.015625 L 62.375 -25.015625 C 64.238281 -25.015625 65.632812 -25.503906 66.5625 -26.484375 C 67.5 -27.460938 67.96875 -28.929688 67.96875 -30.890625 L 67.96875 -36.640625 C 67.96875 -38.597656 67.5 -40.039062 66.5625 -40.96875 C 65.632812 -41.90625 64.238281 -42.375 62.375 -42.375 Z M 43.25 -42.375 "/></g></g></g></svg>