<svg xmlns="http://www.w3.org/2000/svg" xmlns:xlink="http://www.w3.org/1999/xlink" width="1920" zoomAndPan="magnify" viewBox="0 0 1440 809.999993" height="1080" preserveAspectRatio="xMidYMid meet" version="1.0"><defs><g/><clipPath id="a19554b905"><path d="M 107.082031 203.945312 L 401.082031 203.945312 L 401.082031 497.945312 L 107.082031 497.945312 Z M 107.082031 203.945312 " clip-rule="nonzero"/></clipPath><clipPath id="63ca513a56"><path d="M 401.082031 350.945312 C 401.082031 432.132812 335.269531 497.945312 254.082031 497.945312 C 172.898438 497.945312 107.082031 432.132812 107.082031 350.945312 C 107.082031 269.761719 172.898438 203.945312 254.082031 203.945312 C 335.269531 203.945312 401.082031 269.761719 401.082031 350.945312 Z M 401.082031 350.945312 " clip-rule="nonzero"/></clipPath><clipPath id="6f3cb6373f"><path d="M 401.082031 350.945312 C 401.082031 432.132812 335.269531 497.945312 254.082031 497.945312 C 172.898438 497.945312 107.082031 432.132812 107.082031 350.945312 C 107.082031 269.761719 172.898438 203.945312 254.082031 203.945312 C 335.269531 203.945312 401.082031 269.761719 401.082031 350.945312 " clip-rule="nonzero"/></clipPath><clipPath id="397be83ade"><path d="M 305.625 66.277344 L -30.585938 299.402344 L 202.539062 635.613281 L 538.75 402.488281 Z M 305.625 66.277344 " clip-rule="nonzero"/></clipPath><linearGradient x1="-0.00730862" gradientTransform="matrix(239.093598, 344.819027, -344.819027, 239.093598, 139.268575, 185.360188)" y1="0" x2="0.967726" gradientUnits="userSpaceOnUse" y2="0" id="415a3bfbc0"><stop stop-opacity="1" stop-color="rgb(92.89856%, 10.998535%, 14.099121%)" offset="0"/><stop stop-opacity="1" stop-color="rgb(92.89856%, 10.998535%, 14.099121%)" offset="0.0078125"/><stop stop-opacity="1" stop-color="rgb(93.629456%, 9.901428%, 12.678528%)" offset="0.0117187"/><stop stop-opacity="1" stop-color="rgb(94.360352%, 8.805847%, 11.257935%)" offset="0.015625"/><stop stop-opacity="1" stop-color="rgb(95.24231%, 7.333374%, 9.5047%)" offset="0.0195312"/><stop stop-opacity="1" stop-color="rgb(96.124268%, 5.862427%, 7.752991%)" offset="0.0234375"/><stop stop-opacity="1" stop-color="rgb(96.855164%, 4.690552%, 6.239319%)" offset="0.0273438"/><stop stop-opacity="1" stop-color="rgb(97.587585%, 3.518677%, 4.725647%)" offset="0.03125"/><stop stop-opacity="1" stop-color="rgb(98.36731%, 2.397156%, 3.208923%)" offset="0.0351562"/><stop stop-opacity="1" stop-color="rgb(99.14856%, 1.275635%, 1.693726%)" offset="0.0390625"/><stop stop-opacity="1" stop-color="rgb(99.551392%, 0.65918%, 0.889587%)" offset="0.0429687"/><stop stop-opacity="1" stop-color="rgb(99.95575%, 0.0427246%, 0.0869751%)" offset="0.046875"/><stop stop-opacity="1" stop-color="rgb(99.787903%, 0.0213623%, 0.231934%)" offset="0.0625"/><stop stop-opacity="1" stop-color="rgb(99.516296%, 0.0930786%, 0.389099%)" offset="0.0703125"/><stop stop-opacity="1" stop-color="rgb(99.308777%, 0.289917%, 0.39978%)" offset="0.078125"/><stop stop-opacity="1" stop-color="rgb(99.105835%, 0.491333%, 0.494385%)" offset="0.0859375"/><stop stop-opacity="1" stop-color="rgb(98.910522%, 0.688171%, 0.688171%)" offset="0.09375"/><stop stop-opacity="1" stop-color="rgb(98.709106%, 0.791931%, 0.888062%)" offset="0.101562"/><stop stop-opacity="1" stop-color="rgb(98.501587%, 0.799561%, 1.095581%)" offset="0.109375"/><stop stop-opacity="1" stop-color="rgb(98.202515%, 0.996399%, 1.199341%)" offset="0.125"/><stop stop-opacity="1" stop-color="rgb(97.81189%, 1.387024%, 1.390076%)" offset="0.140625"/><stop stop-opacity="1" stop-color="rgb(97.535706%, 1.589966%, 1.686096%)" offset="0.148438"/><stop stop-opacity="1" stop-color="rgb(97.37854%, 1.599121%, 1.893616%)" offset="0.15625"/><stop stop-opacity="1" stop-color="rgb(97.105408%, 1.792908%, 2.192688%)" offset="0.171875"/><stop stop-opacity="1" stop-color="rgb(96.714783%, 1.992798%, 2.392578%)" offset="0.1875"/><stop stop-opacity="1" stop-color="rgb(96.41571%, 2.09198%, 2.468872%)" offset="0.195312"/><stop stop-opacity="1" stop-color="rgb(96.208191%, 2.290344%, 2.616882%)" offset="0.203125"/><stop stop-opacity="1" stop-color="rgb(95.909119%, 2.540588%, 2.890015%)" offset="0.21875"/><stop stop-opacity="1" stop-color="rgb(95.610046%, 2.693176%, 3.091431%)" offset="0.226562"/><stop stop-opacity="1" stop-color="rgb(95.402527%, 2.69928%, 3.09906%)" offset="0.234375"/><stop stop-opacity="1" stop-color="rgb(95.298767%, 2.896118%, 3.295898%)" offset="0.25"/><stop stop-opacity="1" stop-color="rgb(95.106506%, 3.094482%, 3.686523%)" offset="0.265625"/><stop stop-opacity="1" stop-color="rgb(94.812012%, 3.193665%, 3.889465%)" offset="0.273437"/><stop stop-opacity="1" stop-color="rgb(94.604492%, 3.393555%, 3.898621%)" offset="0.28125"/><stop stop-opacity="1" stop-color="rgb(94.30542%, 3.692627%, 4.092407%)" offset="0.296875"/><stop stop-opacity="1" stop-color="rgb(93.914795%, 3.892517%, 4.483032%)" offset="0.3125"/><stop stop-opacity="1" stop-color="rgb(93.615723%, 3.991699%, 4.782104%)" offset="0.320312"/><stop stop-opacity="1" stop-color="rgb(93.408203%, 4.190063%, 4.989624%)" offset="0.328125"/><stop stop-opacity="1" stop-color="rgb(93.206787%, 4.391479%, 5.096436%)" offset="0.335938"/><stop stop-opacity="1" stop-color="rgb(93.011475%, 4.588318%, 5.099487%)" offset="0.34375"/><stop stop-opacity="1" stop-color="rgb(92.810059%, 4.692078%, 5.195618%)" offset="0.351562"/><stop stop-opacity="1" stop-color="rgb(92.601013%, 4.699707%, 5.397034%)" offset="0.359375"/><stop stop-opacity="1" stop-color="rgb(92.350769%, 4.896545%, 5.696106%)" offset="0.375"/><stop stop-opacity="1" stop-color="rgb(92.010498%, 5.09491%, 5.89447%)" offset="0.390625"/><stop stop-opacity="1" stop-color="rgb(91.712952%, 5.194092%, 5.993652%)" offset="0.398437"/><stop stop-opacity="1" stop-color="rgb(91.503906%, 5.393982%, 6.193542%)" offset="0.40625"/><stop stop-opacity="1" stop-color="rgb(91.204834%, 5.693054%, 6.492615%)" offset="0.421875"/><stop stop-opacity="1" stop-color="rgb(90.814209%, 5.892944%, 6.88324%)" offset="0.4375"/><stop stop-opacity="1" stop-color="rgb(90.515137%, 5.992126%, 7.089233%)" offset="0.445312"/><stop stop-opacity="1" stop-color="rgb(90.307617%, 6.190491%, 7.099915%)" offset="0.453125"/><stop stop-opacity="1" stop-color="rgb(90.008545%, 6.295776%, 7.292175%)" offset="0.46875"/><stop stop-opacity="1" stop-color="rgb(89.709473%, 6.394958%, 7.565308%)" offset="0.476562"/><stop stop-opacity="1" stop-color="rgb(89.500427%, 6.596375%, 7.720947%)" offset="0.484375"/><stop stop-opacity="1" stop-color="rgb(89.201355%, 6.896973%, 7.798767%)" offset="0.5"/><stop stop-opacity="1" stop-color="rgb(88.81073%, 7.095337%, 7.989502%)" offset="0.515625"/><stop stop-opacity="1" stop-color="rgb(88.511658%, 7.194519%, 8.285522%)" offset="0.523438"/><stop stop-opacity="1" stop-color="rgb(88.304138%, 7.392883%, 8.493042%)" offset="0.53125"/><stop stop-opacity="1" stop-color="rgb(88.005066%, 7.644653%, 8.79364%)" offset="0.546875"/><stop stop-opacity="1" stop-color="rgb(87.661743%, 7.794189%, 8.99353%)" offset="0.5625"/><stop stop-opacity="1" stop-color="rgb(87.413025%, 7.891846%, 9.092712%)" offset="0.570312"/><stop stop-opacity="1" stop-color="rgb(87.207031%, 8.09021%, 9.289551%)" offset="0.578125"/><stop stop-opacity="1" stop-color="rgb(86.907959%, 8.195496%, 9.590149%)" offset="0.59375"/><stop stop-opacity="1" stop-color="rgb(86.608887%, 8.294678%, 9.791565%)" offset="0.601562"/><stop stop-opacity="1" stop-color="rgb(86.401367%, 8.496094%, 9.799194%)" offset="0.609375"/><stop stop-opacity="1" stop-color="rgb(86.102295%, 8.796692%, 9.996033%)" offset="0.625"/><stop stop-opacity="1" stop-color="rgb(85.71167%, 8.995056%, 10.386658%)" offset="0.640625"/><stop stop-opacity="1" stop-color="rgb(85.412598%, 9.094238%, 10.68573%)" offset="0.648438"/><stop stop-opacity="1" stop-color="rgb(85.203552%, 9.294128%, 10.89325%)" offset="0.65625"/><stop stop-opacity="1" stop-color="rgb(84.90448%, 9.397888%, 10.998535%)" offset="0.671875"/><stop stop-opacity="1" stop-color="rgb(84.513855%, 9.588623%, 11.18927%)" offset="0.6875"/><stop stop-opacity="1" stop-color="rgb(84.214783%, 9.883118%, 11.482239%)" offset="0.695312"/><stop stop-opacity="1" stop-color="rgb(84.007263%, 10.090637%, 11.689758%)" offset="0.703125"/><stop stop-opacity="1" stop-color="rgb(83.708191%, 10.195923%, 11.79657%)" offset="0.71875"/><stop stop-opacity="1" stop-color="rgb(83.409119%, 10.295105%, 11.895752%)" offset="0.726562"/><stop stop-opacity="1" stop-color="rgb(83.201599%, 10.496521%, 12.097168%)" offset="0.734375"/><stop stop-opacity="1" stop-color="rgb(82.902527%, 10.797119%, 12.347412%)" offset="0.75"/><stop stop-opacity="1" stop-color="rgb(82.559204%, 10.995483%, 12.496948%)" offset="0.765625"/><stop stop-opacity="1" stop-color="rgb(82.30896%, 11.09314%, 12.594604%)" offset="0.773437"/><stop stop-opacity="1" stop-color="rgb(82.104492%, 11.29303%, 12.792969%)" offset="0.78125"/><stop stop-opacity="1" stop-color="rgb(81.80542%, 11.398315%, 13.093567%)" offset="0.796875"/><stop stop-opacity="1" stop-color="rgb(81.414795%, 11.58905%, 13.484192%)" offset="0.8125"/><stop stop-opacity="1" stop-color="rgb(81.115723%, 11.883545%, 13.68866%)" offset="0.820312"/><stop stop-opacity="1" stop-color="rgb(80.906677%, 12.091064%, 13.699341%)" offset="0.828125"/><stop stop-opacity="1" stop-color="rgb(80.607605%, 12.19635%, 13.891602%)" offset="0.84375"/><stop stop-opacity="1" stop-color="rgb(80.308533%, 12.271118%, 14.189148%)" offset="0.851562"/><stop stop-opacity="1" stop-color="rgb(80.101013%, 12.42218%, 14.395142%)" offset="0.859375"/><stop stop-opacity="1" stop-color="rgb(79.801941%, 12.5%, 14.498901%)" offset="0.875"/><stop stop-opacity="1" stop-color="rgb(79.411316%, 12.690735%, 14.691162%)" offset="0.890625"/><stop stop-opacity="1" stop-color="rgb(79.112244%, 12.986755%, 14.985657%)" offset="0.898437"/><stop stop-opacity="1" stop-color="rgb(78.903198%, 13.194275%, 15.193176%)" offset="0.90625"/><stop stop-opacity="1" stop-color="rgb(78.604126%, 13.298035%, 15.493774%)" offset="0.921875"/><stop stop-opacity="1" stop-color="rgb(78.213501%, 13.48877%, 15.693665%)" offset="0.9375"/><stop stop-opacity="1" stop-color="rgb(77.914429%, 13.783264%, 15.792847%)" offset="0.945312"/><stop stop-opacity="1" stop-color="rgb(77.706909%, 13.990784%, 15.989685%)" offset="0.953125"/><stop stop-opacity="1" stop-color="rgb(77.600098%, 14.096069%, 16.290283%)" offset="0.96875"/><stop stop-opacity="1" stop-color="rgb(77.52533%, 14.195251%, 16.491699%)" offset="0.976562"/><stop stop-opacity="1" stop-color="rgb(77.374268%, 14.395142%, 16.499329%)" offset="0.984375"/><stop stop-opacity="1" stop-color="rgb(77.101135%, 14.498901%, 16.696167%)" offset="1"/></linearGradient></defs><g clip-path="url(#a19554b905)"><g clip-path="url(#63ca513a56)"><g clip-path="url(#6f3cb6373f)"><g clip-path="url(#397be83ade)"><path fill="url(#415a3bfbc0)" d="M 305.625 66.277344 L -30.585938 299.402344 L 202.539062 635.613281 L 538.75 402.488281 Z M 305.625 66.277344 " fill-rule="nonzero"/></g></g></g></g><path fill="#ffffff" d="M 327.34375 338.515625 L 226.484375 280.285156 C 216.683594 274.628906 204.425781 281.703125 204.425781 293.023438 L 204.425781 409.480469 C 204.425781 420.804688 216.683594 427.878906 226.484375 422.21875 L 327.34375 363.988281 C 337.148438 358.328125 337.148438 344.175781 327.34375 338.515625 L 226.484375 280.285156 C 216.683594 274.628906 204.425781 281.703125 204.425781 293.023438 L 204.425781 409.480469 C 204.425781 420.804688 216.683594 427.878906 226.484375 422.21875 L 327.34375 363.988281 C 337.148438 358.328125 337.148438 344.175781 327.34375 338.515625 " fill-opacity="1" fill-rule="nonzero"/><g fill="#2f3030" fill-opacity="1"><g transform="translate(513.156887, 444.929342)"><g><path d="M 2.210938 0 L 79.007812 0 L 79.007812 -27.183594 C 73.589844 -22.097656 65.195312 -20.996094 59.78125 -20.996094 L 30.9375 -20.996094 L 30.9375 -92.929688 C 30.9375 -98.453125 32.265625 -104.421875 34.808594 -106.628906 L 2.210938 -106.628906 C 4.75 -104.421875 6.078125 -98.34375 6.078125 -92.816406 L 6.078125 -13.8125 C 6.078125 -8.289062 4.75 -2.210938 2.210938 0 Z M 2.210938 0 "/></g></g></g><g fill="#2f3030" fill-opacity="1"><g transform="translate(599.989296, 444.929342)"><g><path d="M 11.601562 0 L 42.210938 0 C 35.25 -9.171875 31.050781 -19.226562 29.390625 -31.824219 L 59.003906 -31.824219 L 59.003906 -13.703125 C 59.003906 -8.175781 57.679688 -2.210938 55.136719 0 L 87.734375 0 C 85.195312 -2.210938 83.867188 -8.289062 83.867188 -13.8125 L 83.867188 -98.5625 C 80.664062 -104.53125 69.722656 -108.289062 59.449219 -108.289062 C 23.535156 -108.289062 3.867188 -75.582031 3.867188 -45.195312 C 3.867188 -27.183594 6.296875 -15.691406 11.601562 0 Z M 29.503906 -52.816406 C 31.710938 -67.402344 39.777344 -85.523438 59.117188 -85.523438 L 59.003906 -52.816406 Z M 29.503906 -52.816406 "/></g></g></g><g fill="#2f3030" fill-opacity="1"><g transform="translate(694.444244, 444.929342)"><g><path d="M 1.105469 -106.628906 C 3.644531 -104.421875 4.972656 -98.453125 4.972656 -92.929688 L 4.972656 -33.921875 C 4.972656 4.53125 43.976562 1.769531 44.199219 1.769531 C 44.199219 1.769531 83.203125 4.53125 83.203125 -33.921875 L 83.203125 -92.929688 C 83.203125 -98.453125 84.53125 -104.421875 87.070312 -106.628906 L 54.476562 -106.628906 C 57.015625 -104.421875 58.34375 -98.34375 58.34375 -92.816406 L 58.34375 -42.320312 C 58.34375 -30.277344 57.347656 -21.105469 44.089844 -21.105469 C 30.828125 -21.105469 29.835938 -30.277344 29.835938 -42.320312 L 29.835938 -92.816406 C 29.835938 -98.34375 31.160156 -104.421875 33.703125 -106.628906 Z M 1.105469 -106.628906 "/></g></g></g><g fill="#2f3030" fill-opacity="1"><g transform="translate(788.236383, 444.929342)"><g><path d="M 3.867188 -53.371094 C 3.867188 -22.984375 24.53125 1.65625 56.683594 1.65625 C 71.933594 1.65625 84.308594 -1.105469 93.371094 -10.164062 L 93.371094 -53.371094 L 68.507812 -53.371094 L 68.507812 -19.777344 C 65.082031 -18.675781 61.769531 -18.121094 58.675781 -18.121094 C 41.65625 -18.121094 28.730469 -32.929688 28.730469 -53.261719 C 28.730469 -76.023438 43.757812 -87.183594 60.773438 -87.183594 C 79.890625 -87.183594 87.625 -73.8125 87.625 -73.8125 C 87.625 -73.8125 91.050781 -85.523438 94.808594 -94.585938 C 86.296875 -103.976562 72.375 -108.289062 56.683594 -108.289062 C 24.53125 -108.289062 3.867188 -83.648438 3.867188 -53.371094 Z M 3.867188 -53.371094 "/></g></g></g><g fill="#2f3030" fill-opacity="1"><g transform="translate(890.866233, 444.929342)"><g><path d="M 34.808594 0 C 32.265625 -2.210938 30.9375 -8.289062 30.9375 -13.8125 L 30.9375 -44.308594 L 59.890625 -44.308594 L 59.890625 -13.703125 C 59.890625 -8.175781 58.5625 -2.210938 56.023438 0 L 88.621094 0 C 86.078125 -2.210938 84.75 -8.289062 84.75 -13.8125 L 84.75 -92.816406 C 84.75 -98.34375 86.078125 -104.421875 88.621094 -106.628906 L 56.023438 -106.628906 C 58.5625 -104.421875 59.890625 -98.453125 59.890625 -92.929688 L 59.890625 -64.199219 L 30.9375 -64.199219 L 30.9375 -92.816406 C 30.9375 -98.34375 32.265625 -104.421875 34.808594 -106.628906 L 2.210938 -106.628906 C 4.75 -104.421875 6.078125 -98.453125 6.078125 -92.929688 L 6.078125 -13.703125 C 6.078125 -8.175781 4.75 -2.210938 2.210938 0 Z M 34.808594 0 "/></g></g></g><g fill="#2f3030" fill-opacity="1"><g transform="translate(987.309686, 444.929342)"><g><path d="M 34.808594 0 C 32.265625 -2.210938 30.9375 -8.289062 30.9375 -13.8125 L 30.9375 -44.308594 L 59.890625 -44.308594 L 59.890625 -13.703125 C 59.890625 -8.175781 58.5625 -2.210938 56.023438 0 L 88.621094 0 C 86.078125 -2.210938 84.75 -8.289062 84.75 -13.8125 L 84.75 -92.816406 C 84.75 -98.34375 86.078125 -104.421875 88.621094 -106.628906 L 56.023438 -106.628906 C 58.5625 -104.421875 59.890625 -98.453125 59.890625 -92.929688 L 59.890625 -64.199219 L 30.9375 -64.199219 L 30.9375 -92.816406 C 30.9375 -98.34375 32.265625 -104.421875 34.808594 -106.628906 L 2.210938 -106.628906 C 4.75 -104.421875 6.078125 -98.453125 6.078125 -92.929688 L 6.078125 -13.703125 C 6.078125 -8.175781 4.75 -2.210938 2.210938 0 Z M 34.808594 0 "/></g></g></g><g fill="#2f3030" fill-opacity="1"><g transform="translate(1083.753138, 444.929342)"><g><path d="M 1.105469 -106.628906 C 3.644531 -104.421875 4.972656 -98.453125 4.972656 -92.929688 L 4.972656 -33.921875 C 4.972656 4.53125 43.976562 1.769531 44.199219 1.769531 C 44.199219 1.769531 83.203125 4.53125 83.203125 -33.921875 L 83.203125 -92.929688 C 83.203125 -98.453125 84.53125 -104.421875 87.070312 -106.628906 L 54.476562 -106.628906 C 57.015625 -104.421875 58.34375 -98.34375 58.34375 -92.816406 L 58.34375 -42.320312 C 58.34375 -30.277344 57.347656 -21.105469 44.089844 -21.105469 C 30.828125 -21.105469 29.835938 -30.277344 29.835938 -42.320312 L 29.835938 -92.816406 C 29.835938 -98.34375 31.160156 -104.421875 33.703125 -106.628906 Z M 1.105469 -106.628906 "/></g></g></g><g fill="#2f3030" fill-opacity="1"><g transform="translate(1177.545278, 444.929342)"><g><path d="M 6.078125 -92.929688 L 6.078125 -13.703125 C 6.078125 -8.175781 4.75 -2.210938 2.210938 0 L 50.496094 0 C 77.679688 0 90.496094 -15.027344 90.496094 -31.160156 C 90.496094 -49.835938 77.789062 -57.128906 68.175781 -57.015625 C 77.902344 -60.222656 84.421875 -69.171875 84.421875 -80.109375 C 84.421875 -96.796875 69.394531 -106.628906 54.253906 -106.628906 L 2.210938 -106.628906 C 4.75 -104.421875 6.078125 -98.453125 6.078125 -92.929688 Z M 49.945312 -46.1875 C 60.773438 -46.1875 65.636719 -40.773438 65.636719 -33.480469 C 65.636719 -26.1875 60.773438 -20.773438 49.945312 -20.773438 L 30.9375 -20.773438 L 30.9375 -46.1875 Z M 30.9375 -85.855469 L 48.617188 -85.855469 C 54.695312 -85.855469 59.226562 -81.328125 59.226562 -75.910156 C 59.226562 -70.496094 54.695312 -65.96875 48.617188 -65.96875 L 30.9375 -65.96875 Z M 30.9375 -85.855469 "/></g></g></g></svg>